<svg width="44" height="44" viewBox="0 0 44 44" fill="none" xmlns="http://www.w3.org/2000/svg">
<rect width="44" height="44" rx="8" fill="#FFE6CA"/>
<path d="M22 10.333V33.6663" stroke="#C46008" stroke-width="2" stroke-linecap="round" stroke-linejoin="round"/>
<path d="M27.8333 13.833H19.0833C18.0004 13.833 16.9618 14.2632 16.196 15.029C15.4302 15.7948 15 16.8334 15 17.9163C15 18.9993 15.4302 20.0379 16.196 20.8037C16.9618 21.5695 18.0004 21.9997 19.0833 21.9997H24.9167C25.9996 21.9997 27.0382 22.4299 27.804 23.1957C28.5698 23.9614 29 25 29 26.083C29 27.166 28.5698 28.2046 27.804 28.9704C27.0382 29.7361 25.9996 30.1663 24.9167 30.1663H15" stroke="#C46008" stroke-width="2" stroke-linecap="round" stroke-linejoin="round"/>
</svg>
